<?xml version="1.0" encoding="utf-8"?>
<svg viewBox="22.746 14.556 454.508 470.887" xmlns="http://www.w3.org/2000/svg">
  <g style="" transform="matrix(0.517491, 0, 0, 0.517491, 120.62722, 120.627228)">
    <g transform="matrix(0.1, 0, 0, -0.1, -197.85437, 714.760193)" fill="#000" stroke="none">
      <path d="M3260 9194 c-14 -2 -68 -9 -120 -15 -274 -31 -411 -61 -680 -148 -240 -77 -238 -76 -485 -197 -170 -83 -308 -163 -425 -247 -255 -183 -263 -189 -490 -416 -224 -224 -368 -408 -513 -653 -57 -97 -213 -409 -226 -451 -5 -18 -19 -57 -31 -87 -20 -52 -41 -116 -74 -220 -23 -72 -58 -231 -90 -405 -39 -210 -50 -540 -27 -795 11 -127 17 -166 57 -365 33 -164 81 -337 119 -430 7 -17 16 -45 19 -62 4 -18 12 -35 17 -38 5 -4 9 -13 9 -21 0 -14 19 -57 107 -242 79 -167 257 -451 367 -587 253 -311 543 -576 828 -756 143 -91 254 -156 328 -191 359 -172 551 -238 910 -312 393 -81 953 -79 1350 4 198 42 190 40 390 105 252 82 454 172 658 294 57 33 106 61 108 61 2 0 43 29 91 64 117 87 128 93 149 75 9 -7 60 -68 113 -134 52 -66 98 -122 101 -125 3 -3 58 -70 122 -150 64 -80 158 -197 209 -260 51 -63 142 -176 202 -250 60 -74 161 -200 225 -279 65 -79 137 -170 162 -201 25 -31 65 -82 90 -112 25 -30 117 -145 205 -254 88 -109 162 -201 165 -204 4 -3 58 -70 122 -150 64 -80 158 -197 209 -260 51 -63 141 -174 199 -246 58 -71 150 -186 204 -253 134 -166 194 -202 285 -175 58 17 101 54 388 335 246 241 263 263 263 336 0 77 -23 113 -152 238 -188 182 -550 536 -778 759 -119 116 -285 278 -370 361 -85 82 -256 249 -380 370 -509 497 -949 925 -1018 990 -41 39 -78 78 -83 88 -8 14 2 32 53 91 127 148 148 175 273 356 28 41 54 82 58 90 4 8 16 29 27 45 49 77 156 291 210 420 22 55 45 109 50 120 54 115 136 446 175 700 22 139 31 543 16 720 -47 595 -274 1195 -635 1680 -138 185 -320 383 -481 524 -352 308 -736 532 -1175 686 -122 42 -259 82 -327 94 -28 5 -68 14 -90 20 -21 5 -85 17 -143 26 -58 9 -132 21 -165 26 -58 11 -625 22 -675 13z m570 -339 c165 -19 383 -59 495 -90 305 -86 585 -206 825 -355 8 -5 35 -21 60 -36 188 -112 487 -372 664 -579 38 -44 79 -92 92 -107 33 -38 164 -235 164 -246 0 -5 -7 -13 -16 -16 -9 -3 -577 -6 -1264 -6 -1342 0 -1288 2 -1335 -50 -19 -21 -20 -40 -23 -528 l-3 -505 49 -81 c27 -45 73 -138 103 -208 29 -71 59 -128 66 -128 10 0 13 121 13 608 0 334 3 617 6 630 l6 22 1228 0 1228 0 6 -22 c3 -13 6 -337 6 -720 0 -620 -2 -698 -16 -712 -14 -14 -101 -16 -807 -16 l-792 -1 32 -27 c17 -15 52 -43 78 -62 81 -62 171 -200 191 -295 10 -52 10 -219 0 -270 -17 -80 -95 -222 -144 -262 -8 -7 -12 -19 -8 -28 5 -14 46 -15 380 -13 291 2 378 6 388 16 21 21 24 177 4 207 -16 24 -19 25 -145 25 -98 0 -131 3 -140 14 -8 9 -11 50 -9 117 l3 104 555 5 c590 5 581 5 621 54 37 44 39 91 39 790 0 599 2 686 15 686 8 0 17 -12 21 -27 3 -16 11 -46 19 -68 29 -90 64 -255 91 -435 25 -161 25 -626 0 -785 -27 -174 -66 -358 -96 -449 -42 -127 -51 -156 -65 -194 -8 -23 -19 -50 -24 -60 -4 -9 -15 -33 -23 -52 -63 -148 -167 -343 -256 -480 -40 -62 -198 -272 -234 -310 -13 -14 -52 -58 -88 -99 -101 -114 -428 -390 -555 -468 -415 -253 -646 -347 -1120 -453 -28 -6 -89 -15 -135 -20 -47 -5 -122 -14 -168 -21 -102 -14 -597 -7 -692 10 -36 6 -105 19 -155 27 -163 29 -420 98 -535 144 -456 182 -802 406 -1117 724 -127 128 -283 309 -283 329 0 7 22 24 49 40 49 27 93 74 124 132 16 31 34 101 62 245 9 47 23 112 30 145 7 33 20 93 29 133 76 345 77 349 132 469 13 29 29 64 34 78 6 16 14 23 21 19 13 -8 7 -366 -11 -699 -5 -93 -10 -278 -12 -410 -2 -233 -2 -242 20 -276 12 -20 41 -49 64 -65 l43 -29 625 0 625 0 44 30 c28 19 54 48 69 77 l24 47 -11 448 c-6 246 -16 553 -23 681 -7 157 -8 236 -1 243 7 7 25 -12 55 -58 167 -253 317 -363 593 -433 131 -34 356 -53 540 -47 242 9 312 28 393 105 64 61 92 127 92 215 0 125 -65 229 -177 282 l-58 27 -205 -6 c-341 -10 -503 14 -585 86 -25 22 -50 50 -57 62 -40 71 -208 420 -208 432 0 3 -16 30 -36 61 -77 120 -187 211 -299 246 -27 9 -68 21 -90 28 -56 18 -1184 26 -1270 9 -153 -30 -261 -87 -356 -187 -81 -86 -116 -140 -219 -338 -213 -407 -260 -529 -325 -840 -9 -44 -23 -102 -30 -130 -7 -27 -16 -71 -19 -96 -11 -76 -46 -104 -59 -47 -3 13 -15 48 -26 78 -72 183 -136 444 -156 630 -4 30 -10 87 -15 125 -12 93 -12 431 0 525 6 41 13 100 16 130 3 30 12 87 20 125 8 39 21 104 30 145 36 173 126 424 237 660 30 64 159 278 225 374 422 614 1133 1087 1862 1239 148 31 237 46 340 57 58 7 112 13 120 15 51 10 413 3 530 -10z"/>
      <path d="M2085 8251 c-85 -19 -210 -65 -236 -87 -8 -8 -19 -14 -23 -14 -12 0 -85 -58 -144 -114 -243 -232 -311 -597 -169 -906 51 -112 157 -242 257 -315 157 -115 367 -170 558 -145 204 26 353 101 490 244 251 265 292 648 104 970 -49 83 -181 213 -269 265 -182 108 -378 143 -568 102z"/>
      <path d="M5018 6913 c-8 -10 -18 -27 -21 -38 -3 -11 -42 -126 -87 -255 -45 -129 -85 -249 -89 -266 -5 -18 -12 -37 -16 -44 -4 -7 -11 -26 -16 -44 -4 -17 -24 -76 -43 -131 -41 -115 -43 -135 -18 -158 26 -24 132 -23 161 1 14 11 45 85 92 222 39 113 74 219 78 236 5 18 12 37 16 44 4 7 11 26 16 44 4 17 33 103 63 191 31 88 56 168 56 177 0 27 -32 38 -108 38 -53 0 -72 -4 -84 -17z"/>
      <path d="M5382 6817 c-34 -34 -62 -70 -62 -79 0 -10 59 -75 130 -146 72 -71 130 -134 130 -141 0 -7 -56 -69 -125 -137 -69 -69 -129 -133 -134 -142 -5 -9 -5 -26 -1 -37 9 -24 114 -125 130 -125 7 0 88 73 182 163 165 157 258 258 258 279 0 18 -412 428 -430 428 -8 0 -44 -28 -78 -63z"/>
      <path d="M4244 6668 c-111 -112 -204 -212 -208 -222 -5 -16 34 -61 206 -233 118 -117 219 -213 225 -213 20 0 133 111 139 137 6 22 -10 42 -125 157 -72 72 -131 139 -131 147 0 9 59 73 130 141 89 86 130 131 130 146 0 31 -111 142 -142 142 -17 0 -78 -55 -224 -202z"/>
    </g>
  </g>
</svg>